<?xml version="1.0" encoding="UTF-8"?>
<svg width="24px" height="24px" viewBox="0 0 24 24" version="1.1" xmlns="http://www.w3.org/2000/svg" xmlns:xlink="http://www.w3.org/1999/xlink">
    <!-- Generator: Sketch 58 (84663) - https://sketch.com -->
    <title>icon-lock</title>
    <desc>Created with Sketch.</desc>
    <g id="icon-lock" stroke="none" stroke-width="1" fill="none" fill-rule="evenodd">
        <path d="M11.5,10.5 L5,10.5 C4.17157288,10.5 3.5,11.1715729 3.5,12 L3.5,20 C3.5,20.8284271 4.17157288,21.5 5,21.5 L11.5,21.5 L11.5,19.4146471 C10.9174038,19.2087289 10.5,18.6531094 10.5,18 L10.5,17.0002659 C9.87949685,16.5348062 9.5,15.8002537 9.5,15 C9.5,13.790521 10.3588798,12.7816442 11.5,12.5500091 L11.5,10.5 Z" id="Path" stroke="#7C5E10" fill="#FCEFC7"></path>
        <path d="M12,19 C12.5522847,19 13,18.5522847 13,18 L13,16.7324356 C13.5978014,16.3866262 14,15.7402824 14,15 C14,13.8954305 13.1045695,13 12,13 L12,10 L15,10 L15,7 C15,5.34314575 13.6568542,4 12,4 C10.3431458,4 9,5.34314575 9,7 L9,10 L7,10 L7,7 C7,4.23857625 9.23857625,2 12,2 C14.7614237,2 17,4.23857625 17,7 L17,10 L19,10 C20.1045695,10 21,10.8954305 21,12 L21,20 C21,21.1045695 20.1045695,22 19,22 L12,22 L12,19 Z" id="secondary" fill="#7C5E10" fill-rule="nonzero"></path>
    </g>
</svg>